<?xml version="1.0" encoding="UTF-8" standalone="no"?>
<!-- Created with Inkscape (http://www.inkscape.org/) -->

<svg
   xmlns:dc="http://purl.org/dc/elements/1.1/"
   xmlns:cc="http://creativecommons.org/ns#"
   xmlns:rdf="http://www.w3.org/1999/02/22-rdf-syntax-ns#"
   xmlns:svg="http://www.w3.org/2000/svg"
   xmlns="http://www.w3.org/2000/svg"
   xmlns:xlink="http://www.w3.org/1999/xlink"
   xmlns:sodipodi="http://sodipodi.sourceforge.net/DTD/sodipodi-0.dtd"
   xmlns:inkscape="http://www.inkscape.org/namespaces/inkscape"
   version="1.1"
   id="svg5067"
   width="342.66666"
   height="261.33334"
   viewBox="0 0 342.66666 261.33334"
   sodipodi:docname="turn.svg"
   inkscape:version="0.92.2 (5c3e80d, 2017-08-06)">
  <metadata
     id="metadata5073">
    <rdf:RDF>
      <cc:Work
         rdf:about="">
        <dc:format>image/svg+xml</dc:format>
        <dc:type
           rdf:resource="http://purl.org/dc/dcmitype/StillImage" />
        <dc:title></dc:title>
      </cc:Work>
    </rdf:RDF>
  </metadata>
  <defs
     id="defs5071" />
  <sodipodi:namedview
     pagecolor="#ffffff"
     bordercolor="#666666"
     borderopacity="1"
     objecttolerance="10"
     gridtolerance="10"
     guidetolerance="10"
     inkscape:pageopacity="0"
     inkscape:pageshadow="2"
     inkscape:window-width="1920"
     inkscape:window-height="1013"
     id="namedview5069"
     showgrid="false"
     inkscape:zoom="2.5542428"
     inkscape:cx="72.039379"
     inkscape:cy="162.57627"
     inkscape:window-x="-9"
     inkscape:window-y="-9"
     inkscape:window-maximized="1"
     inkscape:current-layer="svg5067" />
  <image
     sodipodi:absref="C:\Users\Maxi\Desktop\rewe_jar_tester\src\res\img\turn.jpg"
     xlink:href="turn.jpg"
     y="0"
     x="0"
     id="image5075"
     preserveAspectRatio="none"
     height="261.33334"
     width="342.66666" />
  <path
     style="color:#000000;font-style:normal;font-variant:normal;font-weight:normal;font-stretch:normal;font-size:medium;line-height:normal;font-family:sans-serif;font-variant-ligatures:normal;font-variant-position:normal;font-variant-caps:normal;font-variant-numeric:normal;font-variant-alternates:normal;font-feature-settings:normal;text-indent:0;text-align:start;text-decoration:none;text-decoration-line:none;text-decoration-style:solid;text-decoration-color:#000000;letter-spacing:normal;word-spacing:normal;text-transform:none;writing-mode:lr-tb;direction:ltr;text-orientation:mixed;dominant-baseline:auto;baseline-shift:baseline;text-anchor:start;white-space:normal;shape-padding:0;clip-rule:nonzero;display:inline;overflow:visible;visibility:visible;opacity:1;isolation:auto;mix-blend-mode:normal;color-interpolation:sRGB;color-interpolation-filters:linearRGB;solid-color:#000000;solid-opacity:1;vector-effect:none;fill-opacity:1;fill-rule:nonzero;stroke:none;stroke-width:1.33333337;stroke-linecap:butt;stroke-linejoin:miter;stroke-miterlimit:4;stroke-dasharray:none;stroke-dashoffset:0;stroke-opacity:1;color-rendering:auto;image-rendering:auto;shape-rendering:auto;text-rendering:auto;enable-background:accumulate"
     d="M 206,0.4140625 176.19531,30.195312 c -11.02532,11.016379 -18.19478,18.370916 -22.625,23.3125 -2.21511,2.470793 -3.74599,4.336444 -4.74023,5.775391 -0.99425,1.438947 -1.4961,2.431643 -1.4961,3.359375 0,0.893838 0.44897,1.854681 1.33008,3.183594 0.88111,1.328913 2.23098,3.017008 4.17188,5.21875 3.88178,4.403483 10.13202,10.856469 19.67968,20.414062 10.18392,10.194516 16.60118,16.450846 20.87696,20.181636 4.27578,3.7308 6.41928,5.0254 8.26172,5.0254 H 206 V 100 84.669922 l 2.99609,0.02148 c 3.12133,0.02079 10.85496,0.976011 19.30469,2.298828 8.44973,1.322817 17.67293,3.011155 23.95313,4.478516 17.20183,4.019189 37.13357,11.11692 48.76562,17.3457 8.13966,4.35867 16.0159,10.00057 21.63672,15.11719 2.81041,2.55831 5.05723,4.98804 6.48242,7.0293 1.42519,2.04125 1.92008,3.67699 1.66602,4.46679 -0.1723,0.53563 -1.15726,1.8558 -2.69336,3.36719 -1.53611,1.51139 -3.61371,3.29863 -5.98242,5.16211 -4.73744,3.72697 -10.64802,7.762 -15.78321,10.58008 -23.14387,12.70084 -58.28968,22.76114 -89.40625,25.56836 L 206,181.0918 v 17.8457 c 0,4.75476 0.15467,9.36657 0.40625,12.97852 0.12579,1.80597 0.27695,3.36054 0.44531,4.56836 0.16836,1.20781 0.29837,2.0065 0.60742,2.58398 0.43126,0.80581 0.87559,1.51828 1.63868,2.01172 0.76308,0.49343 1.75861,0.7171 3.19336,0.74804 2.86949,0.0619 7.66487,-0.6156 16.76562,-1.96289 29.69477,-4.39607 59.12021,-13.61714 78.71484,-24.69921 6.05561,-3.42485 12.79814,-8.63007 18.50977,-13.97852 5.71163,-5.34845 10.38307,-10.79704 12.29297,-14.90625 3.34994,-7.20749 4.6268,-22.65762 3.88476,-44.30469 -0.39921,-11.64575 -0.66421,-17.818 -1.61132,-22.294919 -0.94711,-4.476915 -2.59993,-7.201367 -5.62696,-11.734375 -16.90912,-25.3216 -61.75886,-43.750593 -122.14648,-50.59961 L 206,36.546875 V 19.582031 Z m -1.33398,3.21875 V 19.582031 37.736328 l 8.25976,0.9375 c 60.19368,6.827021 104.71835,25.353852 121.18555,50.013672 3.01542,4.515642 4.52603,6.988802 5.43164,11.269531 0.9056,4.280729 1.18493,10.425209 1.58398,22.066409 0.7394,21.57013 -0.67166,37.04696 -3.76172,43.69531 -1.7451,3.75463 -6.3501,9.21095 -11.99414,14.49609 -5.64403,5.28515 -12.33545,10.44264 -18.25586,13.79102 -19.37202,10.95617 -48.70047,20.16587 -78.2539,24.54102 -9.09656,1.34667 -13.92125,2.00377 -16.54102,1.94726 -1.30988,-0.0282 -2.02665,-0.22839 -2.49804,-0.5332 -0.4714,-0.30482 -0.78319,-0.76603 -1.1875,-1.52149 -0.0705,-0.13175 -0.30129,-0.9793 -0.46289,-2.13867 -0.16161,-1.15937 -0.31117,-2.69282 -0.43555,-4.47851 -0.24876,-3.57139 -0.40235,-8.15913 -0.40235,-12.88477 v -16.62695 l 9.72657,-0.87696 c 31.31043,-2.8247 66.54582,-12.89704 89.92773,-25.72851 5.22697,-2.86845 11.17159,-6.92834 15.96484,-10.69922 2.39663,-1.88544 4.5044,-3.69793 6.09376,-5.26172 1.58935,-1.56379 2.66875,-2.79345 3.02734,-3.9082 0.50999,-1.58541 -0.32744,-3.46692 -1.84375,-5.63867 -1.51631,-2.17176 -3.81865,-4.64934 -6.67774,-7.25196 -5.71816,-5.20523 -13.65842,-10.8911 -21.90429,-15.30664 -11.81823,-6.32848 -31.77417,-13.422503 -49.0918,-17.468748 -6.34109,-1.481589 -15.57446,-3.169419 -24.04883,-4.496094 -8.47437,-1.326675 -16.13333,-2.293952 -19.5039,-2.316406 l -4.33789,-0.0293 V 100 115.33398 h -3.01172 c -1.15638,0 -3.16757,-1.01953 -7.38477,-4.69921 -4.2172,-3.67968 -10.63188,-9.92989 -20.81055,-20.119145 -9.5412,-9.551122 -15.78363,-15.998098 -19.62304,-20.353516 -1.91971,-2.177709 -3.23926,-3.833584 -4.06055,-5.072265 -0.82128,-1.238682 -1.10937,-2.0683 -1.10937,-2.447266 0,-0.353503 0.32552,-1.246624 1.26171,-2.601562 0.9362,-1.354939 2.43886,-3.193202 4.63477,-5.642578 4.39182,-4.898754 11.55634,-12.248876 22.57617,-23.259766 z M 131.02344,39.662109 c -1.76925,-0.259433 -3.961,-0.05742 -6.82813,0.236329 C 100.79063,42.296319 70.581857,49.84 51.333984,58.105469 34.133681,65.491667 25.319583,71.07808 15.462891,80.859375 8.6525477,87.617624 5.0688904,91.327279 3.1992188,97.554688 1.3295471,103.7821 1.1654426,112.3727 0.92578125,129.08984 0.67659423,146.47142 0.71332569,155.9186 2.3378906,162.71289 c 1.624565,6.79429 4.8753188,10.84117 10.8046874,17.17969 21.436503,22.9157 57.329972,36.29937 117.771482,44.11328 l 5.75196,0.74414 v 16.98633 19.18164 l 29.80468,-29.7793 c 11.02533,-11.01637 18.19478,-18.37287 22.625,-23.31445 2.21511,-2.47079 3.74599,-4.33645 4.74024,-5.77539 0.99424,-1.43895 1.49804,-2.42969 1.49804,-3.35742 0,-0.89384 -0.45092,-1.85468 -1.33203,-3.1836 -0.88111,-1.32891 -2.22903,-3.017 -4.16992,-5.21875 -3.88179,-4.40348 -10.13202,-10.85646 -19.67969,-20.41406 -10.18391,-10.19451 -16.60312,-16.45085 -20.8789,-20.18164 -4.27578,-3.73079 -6.41733,-5.02734 -8.25977,-5.02734 h -4.34765 v 16.66796 15.33204 h -2.82813 c -0.85219,0 -3.35841,-0.23215 -6.55273,-0.61133 -3.19433,-0.37918 -7.125,-0.90277 -11.01563,-1.47852 -46.137528,-6.8276 -80.35319,-20.68992 -98.251952,-39.61523 -1.877039,-1.98469 -3.585595,-3.93653 -4.814453,-5.46875 -0.614429,-0.76612 -1.109104,-1.42912 -1.439453,-1.92578 -0.165175,-0.24833 -0.288597,-0.4558 -0.361328,-0.59961 -0.07273,-0.14381 -0.06836,-0.25976 -0.06836,-0.10938 0,-0.0517 0.171765,-0.55891 0.63086,-1.18164 0.459094,-0.62273 1.154023,-1.40062 2.03125,-2.27539 1.754454,-1.74954 4.233598,-3.89102 7.054687,-6.11523 5.642178,-4.44844 12.67012,-9.24197 18.082031,-12.03711 C 53.710627,97.718897 64.728917,93.531628 81.302734,89.220703 88.568095,87.33095 99.156096,85.188018 108.84766,83.521484 118.53922,81.854951 127.39899,80.666204 131,80.666016 h 5.66602 V 62.578125 c 0,-11.325628 0.0234,-17.106714 -1.6543,-20.253906 -0.83884,-1.573596 -2.21904,-2.402676 -3.98828,-2.66211 z m -0.19532,1.320313 c 1.50458,0.220624 2.34319,0.721956 3.00782,1.96875 1.32926,2.493587 1.49804,8.307029 1.49804,19.626953 V 79.333984 H 131 c -3.88455,2.04e-4 -12.65914,1.201664 -22.37891,2.873047 -9.719759,1.671383 -20.321352,3.815325 -27.654293,5.722657 -16.638399,4.327722 -27.802941,8.572273 -42.445313,16.134762 -5.545013,2.86389 -12.598149,7.68082 -18.296875,12.17383 -2.849362,2.24651 -5.356345,4.4083 -7.169921,6.2168 -0.906789,0.90425 -1.639549,1.71822 -2.164063,2.42969 C 10.366111,125.59623 10,126.16421 10,126.85742 c 0,0.32931 0.09994,0.49147 0.210938,0.71094 0.110994,0.21947 0.259857,0.4624 0.443359,0.73828 0.367004,0.55177 0.879687,1.23391 1.509765,2.01953 1.260157,1.57125 2.985369,3.54245 4.884766,5.55078 18.256859,19.30395 52.724398,33.16774 99.025392,40.01953 3.90348,0.57766 7.8429,1.10141 11.05273,1.48243 3.20984,0.38102 5.64059,0.62109 6.71094,0.62109 H 138 V 161.33398 146 h 3.01367 c 1.15638,0 3.16561,1.01759 7.38281,4.69727 4.21721,3.67967 10.63384,9.92989 20.8125,20.11914 9.54121,9.55112 15.78364,15.99809 19.62305,20.35351 1.91971,2.17771 3.23731,3.83554 4.05859,5.07422 0.82129,1.23868 1.10938,2.0683 1.10938,2.44727 0,0.3535 -0.32552,1.24467 -1.26172,2.59961 -0.9362,1.35493 -2.43885,3.19515 -4.63476,5.64453 -4.39182,4.89875 -11.55439,12.24888 -22.57422,23.25976 L 138,257.70117 v -15.96484 -18.15821 l -6.91406,-0.89453 C 70.770008,214.88592 35.221023,201.54263 14.115234,178.98047 8.2120283,172.66992 5.1946715,168.92622 3.6347656,162.40234 c -1.5599059,-6.52387 -1.6240507,-15.92089 -1.375,-33.29296 0.2396165,-16.71401 0.4393659,-25.2517 2.2167969,-31.17188 1.777431,-5.920179 5.1221983,-9.379319 11.9257815,-16.130859 9.75573,-9.681105 18.328212,-15.119108 35.457031,-22.47461 19.05266,-8.181639 49.233045,-15.726653 72.470705,-18.107422 2.85614,-0.292619 4.99347,-0.462812 6.49804,-0.242187 z"
     id="path5620"
     inkscape:connector-curvature="0" />
</svg>
